# xmcd
#
# Track frame offsets: 
#        182
#        17157
#        29365
#        50512
#        72792
#        91400
#        109292
#        124620
#        152652
#        173195
#        192942
#        214470
#
# Disc length: 3194 seconds
#
# Revision: 1
# Processed by: cddbd v1.5.2PL0 Copyright (c) Steve Scherf et al.
# Submitted via: ExactAudioCopyFreeDBPlugin 1.0
#
DISCID=a60c780c
DTITLE=Magic Slim and The Teardrops - Teardrops Blues Jam
DYEAR=1992
DGENRE=Blues
TTITLE0=Nick Holt - What Makes A MAn Go Crazy
TTITLE1=Nick Holt - Need Some Good Lovin´
TTITLE2=Nick Holt - Five Long Years
TTITLE3=Earl Howell - Sweet Papa John
TTITLE4=Magic Slim - Hey Baby Can´t You See What You´re Doin´ To Me
TTITLE5=Magic Slim - Red House
TTITLE6=Magic Slim - Whole Lotta Lovin´
TTITLE7=John Primer - Crawling Kingsnake
TTITLE8=John Primer - Somebody Have Mercy
TTITLE9=John Primer - Boat Dock
TTITLE10=Alabama Jr.Pettis - Blues Is A Feeling
TTITLE11=Alabama Jr.Pettis - Tramp
EXTD=
EXTT0=
EXTT1=
EXTT2=
EXTT3=
EXTT4=
EXTT5=
EXTT6=
EXTT7=
EXTT8=
EXTT9=
EXTT10=
EXTT11=
PLAYORDER=
